<?xml version="1.0" encoding="UTF-8"?>
<svg xmlns="http://www.w3.org/2000/svg" width="560" height="410" viewBox="0 0 560 410" role="img" aria-labelledby="title description">
  <title id="title">Anes Abdelli — profile card</title>
  <desc id="description">Role, core and additional technologies, and highlights.</desc>
  <defs>
    <linearGradient id="card-background" x1="0" y1="0" x2="1" y2="1">
      <stop stop-color="#101b2e"/><stop offset="1" stop-color="#0b1220"/>
    </linearGradient>
  </defs>
  <rect width="560" height="410" rx="20" fill="url(#card-background)"/>
  <rect x="1" y="1" width="558" height="408" rx="19" fill="none" stroke="#263449" stroke-width="2"/>
  <path d="M28 96H532M28 303H532" stroke="#263449"/>
  <rect x="28" y="91" width="68" height="3" rx="1.5" fill="#38bdf8"/>
  <text x="28" y="52" fill="#ffffff" font-size="26" font-weight="700">Anes Abdelli</text><text x="29" y="79" fill="#7dd3fc" font-size="14" font-weight="600">Software Engineer</text><text x="28" y="125" fill="#94a3b8" font-size="11" font-weight="700">CORE STACK</text><g><rect x="28" y="143" width="114" height="29" rx="14.5" fill="#172438" stroke="#30445f"/><circle cx="41" cy="157.5" r="3" fill="#38bdf8"/><text x="51" y="162" fill="#dce8f5" font-size="12" font-weight="600">TypeScript</text></g><g><rect x="164" y="143" width="60" height="29" rx="14.5" fill="#172438" stroke="#30445f"/><circle cx="177" cy="157.5" r="3" fill="#fb923c"/><text x="187" y="162" fill="#dce8f5" font-size="12" font-weight="600">Java</text></g><g><rect x="264" y="143" width="78" height="29" rx="14.5" fill="#172438" stroke="#30445f"/><circle cx="277" cy="157.5" r="3" fill="#a78bfa"/><text x="287" y="162" fill="#dce8f5" font-size="12" font-weight="600">Python</text></g><text x="28" y="208" fill="#94a3b8" font-size="11" font-weight="700">ALSO USED</text><g><rect x="28" y="224" width="56" height="29" rx="14.5" fill="#172438" stroke="#30445f"/><circle cx="41" cy="238.5" r="3" fill="#34d399"/><text x="51" y="243" fill="#dce8f5" font-size="12" font-weight="600">C</text></g><g><rect x="133" y="224" width="87" height="29" rx="14.5" fill="#172438" stroke="#30445f"/><circle cx="146" cy="238.5" r="3" fill="#34d399"/><text x="156" y="243" fill="#dce8f5" font-size="12" font-weight="600">Angular</text></g><g><rect x="234" y="224" width="56" height="29" rx="14.5" fill="#172438" stroke="#30445f"/><circle cx="247" cy="238.5" r="3" fill="#34d399"/><text x="257" y="243" fill="#dce8f5" font-size="12" font-weight="600">PHP</text></g><g><rect x="28" y="260" width="87" height="29" rx="14.5" fill="#172438" stroke="#30445f"/><circle cx="41" cy="274.5" r="3" fill="#34d399"/><text x="51" y="279" fill="#dce8f5" font-size="12" font-weight="600">Symfony</text></g><g><rect x="137" y="260" width="60" height="29" rx="14.5" fill="#172438" stroke="#30445f"/><circle cx="150" cy="274.5" r="3" fill="#34d399"/><text x="160" y="279" fill="#dce8f5" font-size="12" font-weight="600">HTML</text></g><g><rect x="222" y="260" width="56" height="29" rx="14.5" fill="#172438" stroke="#30445f"/><circle cx="235" cy="274.5" r="3" fill="#34d399"/><text x="245" y="279" fill="#dce8f5" font-size="12" font-weight="600">CSS</text></g><text x="28" y="318" fill="#94a3b8" font-size="11" font-weight="700">HIGHLIGHTS</text><text x="44" y="347" fill="#dce8f5" font-size="14" font-weight="400">Based in Paris, France</text><text x="44" y="374" fill="#dce8f5" font-size="14" font-weight="400">Focused on practical, well-structured applications</text><circle cx="33" cy="342" r="2.5" fill="#34d399"/><circle cx="33" cy="369" r="2.5" fill="#34d399"/>
</svg>
